<svg width="16" height="16" viewBox="0 0 16 16" fill="none" xmlns="http://www.w3.org/2000/svg">
<path fill-rule="evenodd" clip-rule="evenodd" d="M14.3016 9.18508C14.5699 9.32758 14.7768 9.55258 14.9225 9.77758C15.2061 10.2426 15.1831 10.8126 14.9071 11.3151L14.3706 12.2151C14.087 12.6951 13.5582 12.9951 13.014 12.9951C12.7457 12.9951 12.4468 12.9201 12.2015 12.7701C12.0022 12.6426 11.7723 12.5976 11.527 12.5976C10.7682 12.5976 10.1321 13.2201 10.1091 13.9626C10.1091 14.8251 9.40391 15.5001 8.52247 15.5001H7.48007C6.59097 15.5001 5.88582 14.8251 5.88582 13.9626C5.87049 13.2201 5.23432 12.5976 4.47552 12.5976C4.22258 12.5976 3.99264 12.6426 3.80102 12.7701C3.55575 12.9201 3.24917 12.9951 2.98857 12.9951C2.43671 12.9951 1.90785 12.6951 1.62426 12.2151L1.09539 11.3151C0.8118 10.8276 0.79647 10.2426 1.08006 9.77758C1.2027 9.55258 1.43264 9.32758 1.69324 9.18508C1.90785 9.08008 2.04581 8.90758 2.17611 8.70508C2.55935 8.06008 2.32941 7.21258 1.67791 6.83008C0.919105 6.40258 0.673835 5.45008 1.11072 4.70758L1.62426 3.82258C2.06881 3.08008 3.01923 2.81758 3.7857 3.25258C4.45252 3.61258 5.31863 3.37258 5.70953 2.73508C5.83216 2.52508 5.90115 2.30008 5.88582 2.07508C5.87049 1.78258 5.9548 1.50508 6.10043 1.28008C6.38402 0.815076 6.89756 0.515076 7.45708 0.500076H8.5378C9.10498 0.500076 9.61852 0.815076 9.90211 1.28008C10.0401 1.50508 10.1321 1.78258 10.1091 2.07508C10.0937 2.30008 10.1627 2.52508 10.2853 2.73508C10.6762 3.37258 11.5424 3.61258 12.2168 3.25258C12.9756 2.81758 13.9337 3.08008 14.3706 3.82258L14.8842 4.70758C15.3287 5.45008 15.0834 6.40258 14.317 6.83008C13.6655 7.21258 13.4355 8.06008 13.8264 8.70508C13.9491 8.90758 14.087 9.08008 14.3016 9.18508ZM5.83209 8.00758C5.83209 9.18508 6.8055 10.1226 8.00886 10.1226C9.21221 10.1226 10.1626 9.18508 10.1626 8.00758C10.1626 6.83008 9.21221 5.88508 8.00886 5.88508C6.8055 5.88508 5.83209 6.83008 5.83209 8.00758Z" fill="#A6ABC8"/>
</svg>
