<svg width="16" height="14" viewBox="0 0 16 14" fill="none" xmlns="http://www.w3.org/2000/svg">
<path fill-rule="evenodd" clip-rule="evenodd" d="M12.3267 4.28635H15.5C15.5 1.73844 13.9733 0.25 11.3867 0.25H4.61333C2.02667 0.25 0.5 1.73844 0.5 4.25385V9.74615C0.5 12.2616 2.02667 13.75 4.61333 13.75H11.3867C13.9733 13.75 15.5 12.2616 15.5 9.74615V9.51216H12.3267C10.8539 9.51216 9.66 8.34814 9.66 6.91225C9.66 5.47637 10.8539 4.31235 12.3267 4.31235V4.28635ZM12.3265 5.40431H14.9399C15.2492 5.40431 15.4999 5.64876 15.4999 5.95029V7.84822C15.4963 8.14829 15.2477 8.39069 14.9399 8.3942H12.3865C11.641 8.40398 10.989 7.90628 10.8199 7.19825C10.7352 6.75872 10.8541 6.30518 11.1447 5.95917C11.4353 5.61315 11.8679 5.41006 12.3265 5.40431ZM12.4399 7.39975H12.6866C13.0032 7.39975 13.2599 7.14948 13.2599 6.84077C13.2599 6.53205 13.0032 6.28179 12.6866 6.28179H12.4399C12.2884 6.28005 12.1426 6.33749 12.0349 6.44129C11.9272 6.54509 11.8665 6.68661 11.8666 6.83427C11.8665 7.14405 12.1222 7.39618 12.4399 7.39975ZM4.05343 4.28636H8.28677C8.60341 4.28636 8.8601 4.03609 8.8601 3.72738C8.8601 3.41866 8.60341 3.1684 8.28677 3.1684H4.05343C3.73938 3.16838 3.48375 3.4147 3.4801 3.72088C3.48008 4.03066 3.73572 4.2828 4.05343 4.28636Z" fill="#A6ABC8"/>
</svg>
