<svg width="16" height="16" viewBox="0 0 16 16" fill="none" xmlns="http://www.w3.org/2000/svg">
<path fill-rule="evenodd" clip-rule="evenodd" d="M4.75238 0.499396H11.2549C13.7974 0.499396 15.4999 2.2844 15.4999 4.9394V11.0676C15.4999 13.7151 13.7974 15.4994 11.2549 15.4994H4.75238C2.20988 15.4994 0.499878 13.7151 0.499878 11.0676V4.9394C0.499878 2.2844 2.20988 0.499396 4.75238 0.499396ZM7.99244 5.79516C7.63994 5.79516 7.34744 5.50191 7.34744 5.14266C7.34744 4.77516 7.63994 4.48266 8.00744 4.48266C8.36744 4.48266 8.65994 4.77516 8.65994 5.14266C8.65994 5.50191 8.36744 5.79516 7.99244 5.79516ZM8.65232 10.8351C8.65232 11.1951 8.35981 11.4876 7.99231 11.4876C7.63231 11.4876 7.33981 11.1951 7.33981 10.8351V7.52014C7.33981 7.15939 7.63231 6.86014 7.99231 6.86014C8.35981 6.86014 8.65232 7.15939 8.65232 7.52014V10.8351Z" fill="#A6ABC8"/>
</svg>
